<svg width="55" height="40" viewBox="0 0 55 40" fill="none" xmlns="http://www.w3.org/2000/svg">
<path d="M37.8354 19.7734L53.4343 8.53065C55.3486 7.15101 55.3486 4.91414 53.4343 3.53337L49.9675 1.03473C48.0533 -0.344911 44.9498 -0.344911 43.034 1.03473L27.435 12.2775L11.836 1.03473C9.92181 -0.344911 6.81822 -0.344911 4.90245 1.03473L1.43566 3.53337C-0.478554 4.91302 -0.478554 7.14988 1.43566 8.53065L17.0346 19.7734L1.43566 31.0162C-0.478554 32.3958 -0.478554 34.6327 1.43566 36.0134L4.90245 38.5121C6.81666 39.8917 9.92181 39.8917 11.836 38.5121L27.435 27.2693L43.034 38.5121C44.9482 39.8917 48.0533 39.8917 49.9675 38.5121L53.4343 36.0134C55.3486 34.6338 55.3486 32.3969 53.4343 31.0162L37.8354 19.7734Z" fill="#554F4F" fill-opacity="0.8"/>
</svg>
