<svg width="25" height="25" viewBox="0 0 25 25" fill="none" xmlns="http://www.w3.org/2000/svg">
<path d="M12.4953 0C5.83425 0 0.437347 5.41992 0.437347 12.1094C0.437347 18.7988 5.83425 24.2188 12.4953 24.2188C19.1564 24.2188 24.5533 18.7988 24.5533 12.1094C24.5533 5.41992 19.1564 0 12.4953 0ZM19.4967 13.4766C19.4967 13.7988 19.2341 14.0625 18.9132 14.0625H14.4401V18.5547C14.4401 18.877 14.1776 19.1406 13.8567 19.1406H11.1339C10.813 19.1406 10.5505 18.877 10.5505 18.5547V14.0625H6.07736C5.75646 14.0625 5.49391 13.7988 5.49391 13.4766V10.7422C5.49391 10.4199 5.75646 10.1562 6.07736 10.1562H10.5505V5.66406C10.5505 5.3418 10.813 5.07812 11.1339 5.07812H13.8567C14.1776 5.07812 14.4401 5.3418 14.4401 5.66406V10.1562H18.9132C19.2341 10.1562 19.4967 10.4199 19.4967 10.7422V13.4766Z" fill="black"/>
</svg>
