<svg width="54" height="48" viewBox="0 0 54 48" fill="none" xmlns="http://www.w3.org/2000/svg">
<path d="M49.5113 28.2487L53.9431 8.74866C54.2631 7.34072 53.1929 6 51.7491 6H14.9258L14.0664 1.79906C13.8523 0.751969 12.9309 0 11.8621 0H2.25C1.00734 0 0 1.00734 0 2.25V3.75C0 4.99266 1.00734 6 2.25 6H8.80153L15.3873 38.197C13.8117 39.1031 12.75 40.8021 12.75 42.75C12.75 45.6495 15.1005 48 18 48C20.8995 48 23.25 45.6495 23.25 42.75C23.25 41.2806 22.6456 39.953 21.6728 39H41.3272C40.3544 39.953 39.75 41.2806 39.75 42.75C39.75 45.6495 42.1005 48 45 48C47.8995 48 50.25 45.6495 50.25 42.75C50.25 40.6714 49.0418 38.8751 47.2895 38.0245L47.8067 35.7487C48.1267 34.3407 47.0565 33 45.6127 33H20.4485L19.8349 30H47.3172C48.3678 30 49.2785 29.2731 49.5113 28.2487Z" fill="white"/>
</svg>
