<svg width="15" height="14" viewBox="0 0 15 14" fill="none" xmlns="http://www.w3.org/2000/svg">
<path d="M7.08016 0C10.9913 0 14.1602 2.91941 14.1602 6.52264C14.1602 10.1259 10.9913 13.0453 7.08016 13.0453C3.16903 13.0453 0.00015682 10.1259 0.00015682 6.52264C0.00015682 2.91941 3.16903 0 7.08016 0ZM2.96919 7.25907C2.96919 7.43265 3.12335 7.57468 3.31177 7.57468H5.93822V9.99437C5.93822 10.168 6.09238 10.31 6.2808 10.31H7.87951C8.06793 10.31 8.22209 10.168 8.22209 9.99437V7.57468H10.8485C11.037 7.57468 11.1911 7.43265 11.1911 7.25907V5.78621C11.1911 5.61263 11.037 5.4706 10.8485 5.4706H8.22209V3.05091C8.22209 2.87733 8.06793 2.7353 7.87951 2.7353H6.2808C6.09238 2.7353 5.93822 2.87733 5.93822 3.05091V5.4706H3.31177C3.12335 5.4706 2.96919 5.61263 2.96919 5.78621V7.25907Z" fill="black"/>
</svg>
