<svg width="25" height="25" viewBox="0 0 25 25" fill="none" xmlns="http://www.w3.org/2000/svg">
<path d="M12.4868 0C5.82577 0 0.428864 5.41992 0.428864 12.1094C0.428864 18.7988 5.82577 24.2188 12.4868 24.2188C19.1479 24.2188 24.5448 18.7988 24.5448 12.1094C24.5448 5.41992 19.1479 0 12.4868 0ZM19.4882 13.4766C19.4882 13.7988 19.2257 14.0625 18.9048 14.0625H14.4317V18.5547C14.4317 18.877 14.1691 19.1406 13.8482 19.1406H11.1254C10.8045 19.1406 10.542 18.877 10.542 18.5547V14.0625H6.06887C5.74798 14.0625 5.48543 13.7988 5.48543 13.4766V10.7422C5.48543 10.4199 5.74798 10.1562 6.06887 10.1562H10.542V5.66406C10.542 5.3418 10.8045 5.07812 11.1254 5.07812H13.8482C14.1691 5.07812 14.4317 5.3418 14.4317 5.66406V10.1562H18.9048C19.2257 10.1562 19.4882 10.4199 19.4882 10.7422V13.4766Z" fill="black"/>
</svg>
