<svg width="25" height="25" viewBox="0 0 25 25" fill="none" xmlns="http://www.w3.org/2000/svg">
<path d="M12.6652 0C6.01852 0 0.63327 5.41992 0.63327 12.1094C0.63327 18.7988 6.01852 24.2188 12.6652 24.2188C19.3119 24.2188 24.6971 18.7988 24.6971 12.1094C24.6971 5.41992 19.3119 0 12.6652 0ZM19.6515 13.4766C19.6515 13.7988 19.3895 14.0625 19.0693 14.0625H14.6058V18.5547C14.6058 18.877 14.3438 19.1406 14.0236 19.1406H11.3067C10.9865 19.1406 10.7246 18.877 10.7246 18.5547V14.0625H6.2611C5.9409 14.0625 5.67891 13.7988 5.67891 13.4766V10.7422C5.67891 10.4199 5.9409 10.1562 6.2611 10.1562H10.7246V5.66406C10.7246 5.3418 10.9865 5.07812 11.3067 5.07812H14.0236C14.3438 5.07812 14.6058 5.3418 14.6058 5.66406V10.1562H19.0693C19.3895 10.1562 19.6515 10.4199 19.6515 10.7422V13.4766Z" fill="black"/>
</svg>
