<svg width="25" height="25" viewBox="0 0 25 25" fill="none" xmlns="http://www.w3.org/2000/svg">
<path d="M12.2673 0C5.66307 0 0.312195 5.41992 0.312195 12.1094C0.312195 18.7988 5.66307 24.2188 12.2673 24.2188C18.8716 24.2188 24.2224 18.7988 24.2224 12.1094C24.2224 5.41992 18.8716 0 12.2673 0ZM19.209 13.4766C19.209 13.7988 18.9487 14.0625 18.6305 14.0625H14.1956V18.5547C14.1956 18.877 13.9352 19.1406 13.6171 19.1406H10.9175C10.5994 19.1406 10.3391 18.877 10.3391 18.5547V14.0625H5.9041C5.58594 14.0625 5.32563 13.7988 5.32563 13.4766V10.7422C5.32563 10.4199 5.58594 10.1562 5.9041 10.1562H10.3391V5.66406C10.3391 5.3418 10.5994 5.07812 10.9175 5.07812H13.6171C13.9352 5.07812 14.1956 5.3418 14.1956 5.66406V10.1562H18.6305C18.9487 10.1562 19.209 10.4199 19.209 10.7422V13.4766Z" fill="black"/>
</svg>
